# This file uses centimeters as units for non-parametric coordinates.

mtllib solar panel single.mtl
g default
v 7.205264 1.427260 -1.189116
v 12.279444 1.427260 -1.189116
v 7.205264 6.501441 -1.189116
v 12.279444 6.501441 -1.189116
v 7.205264 6.501441 -1.418972
v 12.279444 6.501441 -1.418972
v 7.205264 1.427260 -1.418972
v 12.279444 1.427260 -1.418972
v 9.742354 1.427260 -1.189116
v 9.742354 1.427260 -1.418972
v 9.742354 6.501441 -1.418972
v 9.742354 6.501441 -1.189116
v 7.205264 3.964351 -1.189116
v 12.279444 3.964351 -1.189116
v 12.279444 3.964351 -1.418972
v 9.742354 3.964351 -1.418972
v 7.205264 3.964351 -1.418972
v 12.025736 1.427260 -1.189116
v 12.025736 3.964351 -1.189116
v 12.025736 6.501441 -1.189116
v 12.025736 6.501441 -1.418972
v 12.025736 3.964351 -1.418972
v 12.025736 1.427260 -1.418972
v 7.458973 1.427260 -1.189116
v 7.458973 1.427260 -1.418972
v 7.458973 3.964351 -1.418972
v 7.458973 6.501441 -1.418972
v 7.458973 6.501441 -1.189116
v 7.458973 3.964351 -1.189116
v 7.205264 6.247732 -1.418972
v 7.458973 6.247732 -1.418972
v 9.742354 6.247732 -1.418972
v 12.025736 6.247732 -1.418972
v 12.279444 6.247732 -1.418972
v 12.279444 6.247732 -1.189116
v 12.025736 6.247732 -1.189116
v 9.742354 6.247732 -1.189116
v 7.458973 6.247732 -1.189116
v 7.205264 6.247732 -1.189116
v 7.205264 1.680969 -1.189116
v 7.458973 1.680969 -1.189116
v 9.742354 1.680969 -1.189116
v 12.025736 1.680969 -1.189116
v 12.279444 1.680969 -1.189116
v 12.279444 1.680969 -1.418972
v 12.025736 1.680969 -1.418972
v 9.742354 1.680969 -1.418972
v 7.458973 1.680969 -1.418972
v 7.205264 1.680969 -1.418972
v 12.025736 6.247732 -0.907427
v 9.742354 6.247732 -0.907427
v 9.742354 3.964351 -0.907427
v 12.025736 3.964351 -0.907427
v 7.458973 6.247732 -0.907427
v 7.458973 3.964351 -0.907427
v 7.458973 1.680969 -0.907427
v 9.742354 1.680969 -0.907427
v 12.025736 1.680969 -0.907427
vt 0.058684 0.527110
vt 0.477498 0.526987
vt 0.060587 0.942873
vt 0.476203 0.942457
vt 0.059865 0.960635
vt 0.476995 0.960242
vt 0.495308 0.526351
vt 0.493946 0.943398
vt 0.040843 0.526473
vt 0.042817 0.943700
vt 0.268435 0.512377
vt 0.268075 0.973324
vt 0.268064 0.955321
vt 0.047185 0.734702
vt 0.761668 0.736635
vt 0.489225 0.735047
vt 0.507229 0.735124
vt 0.029179 0.734793
vt 0.458391 0.527214
vt 0.469466 0.734954
vt 0.456606 0.942508
vt 0.457504 0.960621
vt 0.077768 0.527536
vt 0.079349 0.960920
vt 0.080215 0.942842
vt 0.066949 0.734594
vt 0.042394 0.924206
vt 0.494343 0.923783
vt 0.476267 0.922869
vt 0.456123 0.922346
vt 0.268053 0.935566
vt 0.080664 0.922697
vt 0.060504 0.923249
vt 0.058618 0.547041
vt 0.078742 0.547483
vt 0.268441 0.532250
vt 0.457379 0.547205
vt 0.477531 0.546742
vt 0.495646 0.545929
vt 0.040547 0.546227
vt 0.936909 0.914455
vt 0.268263 0.913304
vt 0.938198 0.737925
vt 0.094252 0.908209
vt 0.089225 0.734687
vt 0.093414 0.560914
vt 0.268202 0.554608
vt 0.443538 0.561492
vt 0.939488 0.561395
vt 0.447196 0.734614
vt 0.762958 0.560105
vt 0.586427 0.558815
vt 0.585138 0.735346
vt 0.583848 0.911876
vt 0.760378 0.913166
vt 0.441681 0.908712
vn 0.000000 0.000000 1.000000
vn 0.000000 0.000000 1.000000
vn 0.000000 0.000000 1.000000
vn 0.000000 0.000000 1.000000
vn 0.000000 1.000000 0.000000
vn 0.000000 1.000000 0.000000
vn 0.000000 1.000000 0.000000
vn 0.000000 1.000000 0.000000
vn 0.000000 0.000000 -1.000000
vn 0.000000 0.000000 -1.000000
vn 0.000000 0.000000 -1.000000
vn 0.000000 0.000000 -1.000000
vn 0.000000 -1.000000 0.000000
vn 0.000000 -1.000000 0.000000
vn 0.000000 -1.000000 0.000000
vn 0.000000 -1.000000 0.000000
vn 1.000000 0.000000 0.000000
vn 1.000000 0.000000 0.000000
vn 1.000000 0.000000 0.000000
vn 1.000000 0.000000 0.000000
vn -1.000000 0.000000 0.000000
vn -1.000000 0.000000 0.000000
vn -1.000000 0.000000 0.000000
vn -1.000000 0.000000 0.000000
vn 0.000000 -1.000000 0.000000
vn 0.000000 -1.000000 0.000000
vn 0.000000 0.000000 -1.000000
vn 0.000000 0.000000 -1.000000
vn 0.000000 1.000000 0.000000
vn 0.000000 1.000000 0.000000
vn 0.000000 0.000000 1.000000
vn 0.000000 0.000000 1.000000
vn 0.000000 0.000000 1.000000
vn 0.000000 0.000000 1.000000
vn 0.000000 0.000000 1.000000
vn 1.000000 0.000000 0.000000
vn 1.000000 0.000000 0.000000
vn 0.000000 0.000000 -1.000000
vn 0.000000 0.000000 -1.000000
vn 0.000000 0.000000 -1.000000
vn -1.000000 0.000000 0.000000
vn -1.000000 0.000000 0.000000
vn 0.000000 0.000000 1.000000
vn 0.000000 0.000000 1.000000
vn 0.000000 0.000000 1.000000
vn 0.000000 0.000000 1.000000
vn 0.000000 0.000000 1.000000
vn 0.000000 0.000000 1.000000
vn 0.000000 1.000000 0.000000
vn 0.000000 1.000000 0.000000
vn 0.000000 0.000000 -1.000000
vn 0.000000 0.000000 -1.000000
vn 0.000000 0.000000 -1.000000
vn 0.000000 -1.000000 0.000000
vn 0.000000 -1.000000 0.000000
vn 0.000000 -1.000000 0.000000
vn 0.000000 -1.000000 0.000000
vn 0.000000 0.000000 -1.000000
vn 0.000000 0.000000 -1.000000
vn 0.000000 0.000000 -1.000000
vn 0.000000 1.000000 0.000000
vn 0.000000 1.000000 0.000000
vn 0.000000 0.000000 1.000000
vn 0.000000 0.000000 1.000000
vn 0.000000 0.000000 1.000000
vn 0.000000 0.000000 1.000000
vn 0.000000 0.000000 1.000000
vn 0.000000 0.000000 1.000000
vn 0.000000 0.000000 -1.000000
vn 0.000000 0.000000 -1.000000
vn 0.000000 0.000000 -1.000000
vn 0.000000 0.000000 -1.000000
vn 0.000000 0.000000 -1.000000
vn 1.000000 0.000000 0.000000
vn 1.000000 0.000000 0.000000
vn 0.000000 0.000000 1.000000
vn 0.000000 0.000000 1.000000
vn 0.000000 0.000000 1.000000
vn 0.000000 0.000000 1.000000
vn 0.000000 0.000000 1.000000
vn 0.000000 0.000000 1.000000
vn -1.000000 0.000000 0.000000
vn -1.000000 0.000000 0.000000
vn 0.000000 0.000000 1.000000
vn 0.000000 0.000000 1.000000
vn 0.000000 0.000000 1.000000
vn 0.000000 0.000000 1.000000
vn 0.000000 0.000000 1.000000
vn 0.000000 0.000000 1.000000
vn 1.000000 0.000000 0.000000
vn 1.000000 0.000000 0.000000
vn 0.000000 0.000000 -1.000000
vn 0.000000 0.000000 -1.000000
vn 0.000000 0.000000 -1.000000
vn 0.000000 0.000000 -1.000000
vn 0.000000 0.000000 -1.000000
vn -1.000000 0.000000 0.000000
vn -1.000000 0.000000 0.000000
vn 0.000000 1.000000 0.000000
vn 0.000000 1.000000 0.000000
vn 0.000000 1.000000 0.000000
vn 0.000000 1.000000 0.000000
vn 1.000000 0.000000 0.000000
vn 1.000000 0.000000 0.000000
vn 1.000000 0.000000 0.000000
vn 1.000000 0.000000 0.000000
vn 0.000000 1.000000 0.000000
vn 0.000000 1.000000 0.000000
vn -1.000000 0.000000 0.000000
vn -1.000000 0.000000 0.000000
vn -1.000000 0.000000 0.000000
vn -1.000000 0.000000 0.000000
vn -1.000000 0.000000 0.000000
vn -1.000000 0.000000 0.000000
vn 0.000000 -1.000000 0.000000
vn 0.000000 -1.000000 0.000000
vn 0.000000 -1.000000 0.000000
vn 0.000000 -1.000000 0.000000
vn 0.000000 -1.000000 0.000000
vn 0.000000 -1.000000 0.000000
vn 1.000000 0.000000 0.000000
vn 1.000000 0.000000 0.000000
s 1
g pCube13
usemtl initialShadingGroup
f 50/41/1 51/55/2 52/15/3 53/43/4
s 2
f 11/12/5 12/13/6 20/21/7 21/22/8
s 3
f 32//9 33//10 22//11 16//12
s 4
f 9//13 10//14 23//15 18//16
s 5
f 14/16/17 15/17/18 34/28/19 35/29/20
s 6
f 17/18/21 13/14/22 39/33/23 30/27/24
s 4
f 24//25 25//26 10//14 9//13
s 3
f 26//27 31//28 32//9 16//12
s 2
f 27/24/29 28/25/30 12/13/6 11/12/5
s 1
f 51/55/2 54/54/31 55/53/32 52/15/3
f 55/53/32 56/52/33 57/51/34 52/15/3
f 57/51/34 58/49/35 53/43/4 52/15/3
s 5
f 44/38/36 45/39/37 15/17/18 14/16/17
s 3
f 46//38 47//39 16//12 22//11
f 47//39 48//40 26//27 16//12
s 6
f 49/40/41 40/34/42 13/14/22 17/18/21
s 7
f 14/16/43 19/20/44 43/37/45 44/38/46
f 35/29/47 36/30/48 19/20/44 14/16/43
s 2
f 21/22/8 20/21/7 4/4/49 6/6/50
s 3
f 15//51 22//11 33//10 34//52
f 45//53 46//38 22//11 15//51
s 4
f 18//16 23//15 8//54 2//55
f 7//56 25//26 24//25 1//57
s 3
f 17//58 26//27 48//40 49//59
f 30//60 31//28 26//27 17//58
s 2
f 3/3/61 28/25/30 27/24/29 5/5/62
s 7
f 13/14/63 29/26/64 38/32/65 39/33/66
f 40/34/67 41/35/68 29/26/64 13/14/63
s 3
f 5//69 27//70 31//28 30//60
f 32//9 31//28 27//70 11//71
f 21//72 33//10 32//9 11//71
f 34//52 33//10 21//72 6//73
s 5
f 35/29/20 34/28/19 6/8/74 4/4/75
s 7
f 20/21/76 36/30/48 35/29/47 4/4/77
f 12/13/78 37/31/79 36/30/48 20/21/76
f 28/25/80 38/32/65 37/31/79 12/13/78
f 39/33/66 38/32/65 28/25/80 3/3/81
s 6
f 30/27/24 39/33/23 3/3/82 5/10/83
s 7
f 1/1/84 24/23/85 41/35/68 40/34/67
f 42/36/86 41/35/68 24/23/85 9/11/87
f 18/19/88 43/37/45 42/36/86 9/11/87
f 44/38/46 43/37/45 18/19/88 2/2/89
s 5
f 2/2/90 8/7/91 45/39/37 44/38/36
s 3
f 23//92 46//38 45//53 8//93
f 10//94 47//39 46//38 23//92
f 25//95 48//40 47//39 10//94
f 49//59 48//40 25//95 7//96
s 6
f 7/9/97 1/1/98 40/34/42 49/40/41
s 9
f 36/30/99 37/31/100 51/42/101 50/56/102
s 10
f 19/20/103 36/30/104 50/56/105 53/50/106
s 9
f 37/31/100 38/32/107 54/44/108 51/42/101
s 11
f 38/32/109 29/26/110 55/45/111 54/44/112
f 29/26/110 41/35/113 56/46/114 55/45/111
s 12
f 41/35/115 42/36/116 57/47/117 56/46/118
f 42/36/116 43/37/119 58/48/120 57/47/117
s 10
f 43/37/121 19/20/103 53/50/106 58/48/122
